<svg width="174" height="184" viewBox="0 0 174 184" fill="none" xmlns="http://www.w3.org/2000/svg">
<path d="M32 65L34.2451 71.9098H41.5106L35.6327 76.1803L37.8779 83.0902L32 78.8197L26.1221 83.0902L28.3673 76.1803L22.4894 71.9098H29.7549L32 65Z" fill="#57546F"/>
<path d="M82 40L84.2451 46.9098H91.5106L85.6327 51.1803L87.8779 58.0902L82 53.8197L76.1221 58.0902L78.3673 51.1803L72.4894 46.9098H79.7549L82 40Z" fill="#57546F"/>
<path d="M77 99L80.3677 109.365H91.2658L82.4491 115.771L85.8168 126.135L77 119.729L68.1832 126.135L71.5509 115.771L62.7342 109.365H73.6323L77 99Z" fill="#57546F"/>
<path d="M138 114L141.368 124.365H152.266L143.449 130.771L146.817 141.135L138 134.729L129.183 141.135L132.551 130.771L123.734 124.365H134.632L138 114Z" fill="#57546F"/>
</svg>
